<mxfile host="65bd71144e">
    <diagram id="_DQ_V5uSIfFdpauNobwu" name="Page-1">
        <mxGraphModel dx="674" dy="347" grid="1" gridSize="10" guides="1" tooltips="1" connect="1" arrows="1" fold="1" page="1" pageScale="1" pageWidth="850" pageHeight="1100" math="0" shadow="0">
            <root>
                <mxCell id="0"/>
                <mxCell id="1" parent="0"/>
                <mxCell id="2" value="Gestor de legajo" style="swimlane;fontStyle=1;align=center;verticalAlign=top;childLayout=stackLayout;horizontal=1;startSize=26;horizontalStack=0;resizeParent=1;resizeParentMax=0;resizeLast=0;collapsible=1;marginBottom=0;" parent="1" vertex="1">
                    <mxGeometry x="100" y="140" width="270" height="130" as="geometry"/>
                </mxCell>
                <mxCell id="3" value="- Alumnos[]&#10;" style="text;strokeColor=none;fillColor=none;align=left;verticalAlign=top;spacingLeft=4;spacingRight=4;overflow=hidden;rotatable=0;points=[[0,0.5],[1,0.5]];portConstraint=eastwest;" parent="2" vertex="1">
                    <mxGeometry y="26" width="270" height="34" as="geometry"/>
                </mxCell>
                <mxCell id="4" value="" style="line;strokeWidth=1;fillColor=none;align=left;verticalAlign=middle;spacingTop=-1;spacingLeft=3;spacingRight=3;rotatable=0;labelPosition=right;points=[];portConstraint=eastwest;strokeColor=inherit;" parent="2" vertex="1">
                    <mxGeometry y="60" width="270" height="8" as="geometry"/>
                </mxCell>
                <mxCell id="5" value="+ promedioPorAlumno(dni: number): number&#10;+ promedioGeneral(): number&#10;+ altaAlumnos(alumno: Alumno): string&#10;&#10;" style="text;strokeColor=none;fillColor=none;align=left;verticalAlign=top;spacingLeft=4;spacingRight=4;overflow=hidden;rotatable=0;points=[[0,0.5],[1,0.5]];portConstraint=eastwest;" parent="2" vertex="1">
                    <mxGeometry y="68" width="270" height="62" as="geometry"/>
                </mxCell>
                <mxCell id="6" value="Alumno" style="swimlane;fontStyle=1;align=center;verticalAlign=top;childLayout=stackLayout;horizontal=1;startSize=26;horizontalStack=0;resizeParent=1;resizeParentMax=0;resizeLast=0;collapsible=1;marginBottom=0;" parent="1" vertex="1">
                    <mxGeometry x="530" y="130" width="160" height="190" as="geometry"/>
                </mxCell>
                <mxCell id="7" value="- nombre: string&#10;- dni: number &#10;- notasExamen: [] " style="text;strokeColor=none;fillColor=none;align=left;verticalAlign=top;spacingLeft=4;spacingRight=4;overflow=hidden;rotatable=0;points=[[0,0.5],[1,0.5]];portConstraint=eastwest;" parent="6" vertex="1">
                    <mxGeometry y="26" width="160" height="74" as="geometry"/>
                </mxCell>
                <mxCell id="8" value="" style="line;strokeWidth=1;fillColor=none;align=left;verticalAlign=middle;spacingTop=-1;spacingLeft=3;spacingRight=3;rotatable=0;labelPosition=right;points=[];portConstraint=eastwest;strokeColor=inherit;" parent="6" vertex="1">
                    <mxGeometry y="100" width="160" height="8" as="geometry"/>
                </mxCell>
                <mxCell id="9" value="+ getDni&#10;+ obtenerNotas: number&#10;+ promedioAlumno: number" style="text;strokeColor=none;fillColor=none;align=left;verticalAlign=top;spacingLeft=4;spacingRight=4;overflow=hidden;rotatable=0;points=[[0,0.5],[1,0.5]];portConstraint=eastwest;" parent="6" vertex="1">
                    <mxGeometry y="108" width="160" height="82" as="geometry"/>
                </mxCell>
                <mxCell id="10" value="" style="endArrow=diamondThin;endFill=1;endSize=24;html=1;" parent="1" edge="1">
                    <mxGeometry width="160" relative="1" as="geometry">
                        <mxPoint x="510" y="210" as="sourcePoint"/>
                        <mxPoint x="390" y="210" as="targetPoint"/>
                    </mxGeometry>
                </mxCell>
            </root>
        </mxGraphModel>
    </diagram>
</mxfile>